<svg width="102" height="110" viewBox="0 0 102 110" fill="none" xmlns="http://www.w3.org/2000/svg">
<line x1="1.08044" y1="63.871" x2="1.08044" y2="3.8147e-06" stroke="#F59E0B"/>
<line y1="-0.5" x2="97.0144" y2="-0.5" transform="matrix(0.879723 0.475486 -0.394183 0.919032 0 63.871)" stroke="#F59E0B"/>
<path d="M10.0684 42.6984C9.92663 42.6241 9.79868 42.4821 9.68451 42.2724C9.43333 41.6311 9.44081 40.9903 9.70695 40.3501C10.0243 39.5867 10.6589 38.9596 11.6109 38.4688C12.5967 37.9657 13.8061 37.7896 15.2392 37.9406C16.8683 38.1043 18.5746 38.4284 20.358 38.9128C22.1517 39.3727 23.9348 39.9619 25.7072 40.6805C27.5135 41.3868 29.2079 42.1545 30.7906 42.9835C31.3812 43.2929 31.9548 43.6084 32.5115 43.93C33.0681 44.2516 33.5961 44.5731 34.0953 44.8946C37.4244 47.0583 39.7834 49.1337 41.1724 51.1207C42.585 53.1201 43.0559 54.6861 42.585 55.8188C42.3905 56.2867 42.0527 56.6495 41.5716 56.9072C41.348 57.03 41.0535 57.1156 40.6882 57.1641C40.3567 57.2004 40.1083 57.1752 39.9429 57.0886C39.8012 57.0143 39.761 56.9033 39.8224 56.7556C39.8941 56.5832 40.1299 56.3619 40.5299 56.0917C40.9976 55.7969 41.3082 55.4649 41.4618 55.0955C41.7586 54.3814 41.5519 53.5985 40.8417 52.7466C40.1653 51.8826 39.161 51.0116 37.8287 50.1338C36.5303 49.2437 35.0898 48.3842 33.5071 47.5551C32.4205 46.9859 31.3068 46.4474 30.1658 45.9397C29.0351 45.4074 27.965 44.9368 26.9556 44.5279C26.4863 44.3421 25.7655 44.0694 24.793 43.7099C23.8442 43.3628 22.7619 42.9908 21.5462 42.5938C20.3407 42.1722 19.1029 41.7937 17.8329 41.4582C16.573 41.0981 15.3923 40.8245 14.2908 40.6373C13.1892 40.45 12.2494 40.3925 11.4715 40.4648C10.7274 40.5248 10.2581 40.7887 10.0636 41.2566C9.93057 41.5767 9.96955 42.0019 10.1806 42.5323C10.2073 42.6063 10.2156 42.6556 10.2054 42.6802C10.1849 42.7294 10.1392 42.7355 10.0684 42.6984ZM12.0739 66.4183C10.8865 65.6764 10.2168 64.8308 10.0649 63.8816C9.91291 62.9324 10.0365 61.9777 10.4357 61.0173C10.7735 60.2047 11.2278 59.4232 11.7987 58.6727C12.3696 57.9223 12.9215 57.2519 13.4546 56.6615C13.9774 56.0958 14.5865 55.5303 15.2817 54.9649C16.0006 54.4119 16.9108 53.7793 18.0124 53.0669C19.1376 52.3669 20.5762 51.5013 22.3281 50.4699C24.0801 49.4386 26.2505 48.1617 28.8395 46.6392C29.2765 46.4184 29.6013 46.3636 29.8139 46.475C29.9556 46.5492 30.0245 46.6603 30.0205 46.8082C30.0505 46.9438 30.0213 47.0485 29.9331 47.1222C26.2899 49.3818 23.3541 51.4272 21.1258 53.2585C18.9313 55.0775 17.1923 56.7004 15.9089 58.1271C15.6475 58.41 15.2892 58.822 14.8341 59.3632C14.4129 59.8922 13.9778 60.4889 13.529 61.1534C13.0904 61.7933 12.7381 62.4333 12.4719 63.0735C12.1853 63.763 12.0578 64.4158 12.0893 65.032C12.1208 65.6483 12.4318 66.111 13.0223 66.4204C13.3767 66.606 13.7585 66.6561 14.168 66.5708C14.3168 66.5588 14.403 66.5589 14.4266 66.5713C14.4739 66.5961 14.4873 66.6331 14.4668 66.6823C14.4361 66.7562 14.3243 66.8176 14.1314 66.8664C13.5085 67.0499 12.8227 66.9006 12.0739 66.4183ZM31.0416 58.9476C30.7109 58.7744 30.509 58.5337 30.4357 58.2254C30.3625 57.9172 30.3771 57.6399 30.4794 57.3937C30.6842 56.9012 31.1082 56.5386 31.7515 56.3059C32.405 56.0485 32.9798 56.0498 33.4759 56.3096C33.8066 56.4828 34.0085 56.7236 34.0818 57.0318C34.155 57.3401 34.1404 57.6173 34.0381 57.8635C33.8231 58.3806 33.394 58.7556 32.7507 58.9883C32.131 59.2334 31.5613 59.2199 31.0416 58.9476ZM20.9067 67.447C19.9382 66.9397 19.3638 66.3839 19.1835 65.7797C19.0371 65.1632 19.0764 64.5841 19.3016 64.0424C19.4859 63.5992 19.7307 63.2177 20.0362 62.898C20.352 62.5536 20.5929 62.32 20.7591 62.1971C21.0032 62.0251 21.3099 61.8409 21.6791 61.6446C22.0721 61.4606 22.4988 61.2643 22.9594 61.0558C22.313 61.227 21.6953 61.3982 21.1063 61.5694C20.541 61.753 20.0874 61.8753 19.7457 61.9361C19.6441 61.9729 19.5579 61.9727 19.487 61.9356C19.3926 61.8861 19.3709 61.7998 19.4221 61.6767C19.504 61.4797 19.7158 61.3507 20.0575 61.2899C20.8969 61.0699 21.7331 60.7882 22.5661 60.445C23.4228 60.1141 24.2236 59.814 24.9685 59.5445C25.7236 59.2503 26.348 59.0977 26.8417 59.0864C27.3692 59.0629 27.7783 59.0823 28.0688 59.1445C28.3594 59.2068 28.5873 59.2812 28.7527 59.3678C29.0125 59.5039 29.181 59.6522 29.2582 59.8125C29.3456 59.9483 29.3334 60.0468 29.2216 60.1082C28.646 60.3165 28.0192 60.6478 27.3413 61.1023C26.6972 61.5445 26.0614 62.0361 25.4338 62.5769C24.8063 63.1178 24.2531 63.6526 23.7744 64.1815C23.3193 64.7227 22.9996 65.2149 22.8154 65.6582C22.5595 66.2738 22.6677 66.7053 23.1402 66.9528C23.589 67.1879 24.2547 67.2818 25.1374 67.2344C26.0539 67.1748 27.0401 67.0167 28.096 66.7602C29.1755 66.5161 30.1909 66.2533 31.1421 65.972C31.2775 65.923 31.3806 65.917 31.4515 65.9541C31.5696 66.016 31.6031 66.1085 31.5519 66.2316C31.5243 66.3671 31.4649 66.4409 31.3735 66.4531C30.2767 66.808 29.0582 67.1443 27.7181 67.4618C26.4118 67.767 25.1449 67.943 23.9173 67.9896C22.7134 68.0486 21.7099 67.8678 20.9067 67.447ZM28.2977 74.8271C27.9827 74.0624 27.8178 73.4212 27.8028 72.9036C27.8012 72.423 27.9489 71.8257 28.2457 71.1116C28.5528 70.3729 28.9902 69.5975 29.5579 68.7854C30.1492 67.9857 30.8386 67.1923 31.626 66.4054C31.2874 66.5279 30.937 66.6442 30.5748 66.7543C30.2126 66.8644 29.8606 66.9499 29.5189 67.0108C29.4173 67.0475 29.3311 67.0474 29.2602 67.0102C29.1894 66.9731 29.1693 66.9176 29.2 66.8437C29.2717 66.6714 29.5106 66.5117 29.9169 66.3647C30.4382 66.218 30.9512 66.0219 31.4559 65.7765C31.9606 65.5312 32.5212 65.2551 33.1378 64.9484C35.4551 62.8338 37.8015 61.0644 40.177 59.6401C42.5526 58.2157 45.1994 57.0385 48.1175 56.1082C49.6002 55.6555 50.8943 55.4488 51.9998 55.4882C53.1289 55.5399 54.0478 55.7514 54.7564 56.1226C55.4651 56.4938 55.9383 56.9816 56.1761 57.586C56.4139 58.1903 56.3997 58.8126 56.1336 59.4528C55.8777 60.0684 55.3852 60.665 54.656 61.2426C53.9505 61.8326 52.9817 62.3296 51.7494 62.7335C50.8793 63.0274 49.8809 63.284 48.7541 63.5034C47.6376 63.6982 46.5128 63.8436 45.3798 63.9397C44.2467 64.0359 43.2136 64.0644 42.2806 64.0255C42.2231 64.0253 42.1656 64.0252 42.1081 64.0251C42.0609 64.0003 42.0137 63.9756 41.9664 63.9508C41.8011 63.8642 41.744 63.7593 41.7952 63.6362C41.8566 63.4885 42.0377 63.4334 42.3385 63.471C43.214 63.5099 44.2117 63.4628 45.3313 63.3296C46.4746 63.2089 47.603 63.0203 48.7163 62.764C49.8297 62.5076 50.7978 62.2201 51.6206 61.9015C52.6569 61.4847 53.4411 61.0859 53.9734 60.7051C54.5395 60.312 54.884 59.9677 55.0068 59.6722C55.1604 59.3028 55.0364 59.013 54.6348 58.8026C54.2096 58.5799 53.4982 58.4921 52.5005 58.5392C51.5368 58.5741 50.3525 58.7933 48.9478 59.1969C47.2148 59.6984 45.4219 60.3785 43.5691 61.2371C41.74 62.1081 40.0105 63.0162 38.3806 63.9616C36.7846 64.8946 35.4204 65.7543 34.2881 66.5405C35.7417 65.7427 37.0539 65.2156 38.2247 64.9594C39.3956 64.7031 40.4137 64.6068 41.279 64.6702C41.9955 64.7457 42.6255 64.9258 43.1688 65.2104C43.7829 65.5321 44.2125 65.952 44.4573 66.4701C44.7022 66.9882 44.7223 67.4935 44.5176 67.986C44.3129 68.4785 43.9172 68.9459 43.3306 69.3882C42.7676 69.843 41.9853 70.1678 40.9838 70.3628C40.209 70.4967 39.2539 70.4762 38.1184 70.3012C37.0169 70.1139 36.0409 69.7976 35.1905 69.3521C34.6944 69.0923 34.3 68.7957 34.0071 68.4623C34.2236 69.3254 34.5634 70.238 35.0263 71.2002C35.4996 72.1378 36.0255 72.9831 36.6043 73.736C37.2169 74.4767 37.8066 74.9956 38.3736 75.2925C38.7751 75.5029 39.1873 75.5839 39.6102 75.5355C40.033 75.4871 40.3109 75.3029 40.444 74.9828C40.4645 74.9335 40.4983 74.9213 40.5456 74.946C40.6165 74.9832 40.6417 75.0263 40.6212 75.0756C40.4267 75.5435 40.0791 75.8261 39.5783 75.9236C39.1011 76.0335 38.5771 76.0139 38.0062 75.8648C37.7496 75.7903 37.4811 75.7096 37.2007 75.6227C36.9543 75.5236 36.7011 75.406 36.4413 75.2699C35.4728 74.7625 34.635 74.1138 33.9279 73.3236C33.2547 72.5211 32.7185 71.7005 32.3193 70.8616C31.9539 70.0106 31.7437 69.2707 31.6886 68.6421C31.0539 69.2692 30.4902 69.9335 29.9973 70.6348C29.5382 71.3239 29.1756 71.9885 28.9095 72.6288C28.5512 73.4906 28.437 74.1804 28.567 74.6983C28.5969 74.8339 28.5713 74.8955 28.4902 74.883C28.3989 74.8951 28.3347 74.8765 28.2977 74.8271ZM34.6862 68.5932C35.2767 68.9025 36.035 69.1198 36.961 69.2451C37.9106 69.3827 38.7322 69.3783 39.4259 69.2319C39.9944 69.1099 40.455 68.9014 40.8078 68.6064C41.1841 68.3238 41.4389 68.0224 41.5719 67.7023C41.7152 67.3576 41.7267 67.0187 41.6062 66.6858C41.5196 66.3405 41.2873 66.0689 40.9093 65.8709C40.5314 65.6729 40.0263 65.5733 39.394 65.5719C38.772 65.5459 37.9854 65.6736 37.0342 65.955C36.5027 66.1263 35.9543 66.3038 35.3889 66.4875C34.8472 66.6835 34.324 66.9041 33.8193 67.1495C33.8153 67.2974 33.8181 67.4637 33.8275 67.6486C33.8472 67.8088 33.8941 67.9383 33.9681 68.0371C34.0421 68.1358 34.1448 68.2346 34.2763 68.3335C34.4078 68.4324 34.5444 68.5189 34.6862 68.5932ZM47.1966 62.1478C47.0549 62.0735 46.927 61.9315 46.8128 61.7218C46.5616 61.0805 46.5691 60.4397 46.8352 59.7995C47.1525 59.0361 47.7872 58.409 48.7391 57.9182C49.725 57.4151 50.9344 57.239 52.3675 57.39C53.9966 57.5537 55.7029 57.8778 57.4863 58.3623C59.28 58.8221 61.063 59.4113 62.8355 60.1299C64.6417 60.8362 66.3362 61.6039 67.9189 62.4329C68.5094 62.7423 69.083 63.0578 69.6397 63.3794C70.1964 63.701 70.7244 64.0225 71.2236 64.344C74.5527 66.5077 76.9117 68.5831 78.3007 70.5701C79.7133 72.5695 80.1842 74.1356 79.7133 75.2682C79.5188 75.7361 79.181 76.0989 78.6999 76.3566C78.4763 76.4794 78.1818 76.565 77.8165 76.6135C77.485 76.6498 77.2365 76.6246 77.0712 76.538C76.9295 76.4637 76.8893 76.3527 76.9507 76.205C77.0224 76.0326 77.2582 75.8113 77.6582 75.5411C78.1259 75.2463 78.4365 74.9143 78.5901 74.5449C78.8869 73.8308 78.6802 73.0479 77.97 72.196C77.2936 71.332 76.2893 70.461 74.957 69.5832C73.6586 68.6931 72.2181 67.8336 70.6354 67.0045C69.5488 66.4353 68.435 65.8968 67.2941 65.3891C66.1634 64.8568 65.0933 64.3862 64.0839 63.9773C63.6146 63.7915 62.8937 63.5188 61.9213 63.1593C60.9725 62.8122 59.8902 62.4402 58.6745 62.0432C57.469 61.6217 56.2312 61.2431 54.9611 60.9076C53.7013 60.5476 52.5206 60.2739 51.419 60.0867C50.3175 59.8994 49.3777 59.8419 48.5998 59.9142C47.8557 59.9742 47.3864 60.2381 47.1919 60.706C47.0589 61.0261 47.0978 61.4513 47.3089 61.9817C47.3356 62.0557 47.3439 62.105 47.3337 62.1296C47.3132 62.1788 47.2675 62.1849 47.1966 62.1478ZM49.2022 85.8678C48.0148 85.1258 47.3451 84.2802 47.1932 83.331C47.0412 82.3818 47.1648 81.4271 47.564 80.4667C47.9018 79.6541 48.3561 78.8726 48.927 78.1222C49.4978 77.3717 50.0498 76.7013 50.5829 76.1109C51.1057 75.5452 51.7147 74.9797 52.41 74.4143C53.1289 73.8613 54.0391 73.2287 55.1407 72.5163C56.2659 71.8163 57.7044 70.9507 59.4564 69.9193C61.2083 68.888 63.3788 67.6111 65.9677 66.0887C66.4047 65.8678 66.7295 65.813 66.9421 65.9244C67.0839 65.9987 67.1528 66.1097 67.1488 66.2576C67.1787 66.3932 67.1496 66.4979 67.0614 66.5716C63.4182 68.8312 60.4824 70.8766 58.254 72.7079C56.0596 74.527 54.3206 76.1498 53.0372 77.5765C52.7758 77.8594 52.4175 78.2714 51.9624 78.8126C51.5411 79.3416 51.1061 79.9384 50.6573 80.6028C50.2187 81.2427 49.8664 81.8827 49.6002 82.5229C49.3136 83.2124 49.1861 83.8652 49.2175 84.4815C49.249 85.0977 49.5601 85.5605 50.1506 85.8698C50.5049 86.0554 50.8868 86.1055 51.2963 86.0202C51.4451 86.0082 51.5313 86.0084 51.5549 86.0207C51.6022 86.0455 51.6156 86.0825 51.5951 86.1317C51.5644 86.2056 51.4526 86.267 51.2597 86.3158C50.6368 86.4993 49.951 86.35 49.2022 85.8678ZM57.5035 86.618C56.7712 86.2344 56.3016 85.7035 56.0945 85.0253C55.8976 84.3225 55.9579 83.5894 56.2752 82.826C56.572 82.112 57.0767 81.4168 57.7893 80.7406C58.5255 80.0767 59.4795 79.5119 60.6511 79.0462C61.8668 78.5436 63.2066 78.3308 64.6704 78.4079C66.1444 78.4604 67.4365 78.7775 68.5467 79.359C69.4443 79.8293 70.125 80.4407 70.5888 81.1934C71.0628 81.9215 71.2782 82.649 71.2349 83.376C71.4947 83.5121 71.7829 83.753 72.0994 84.0988C72.4396 84.4569 72.5278 84.8329 72.364 85.2269C72.2514 85.4978 71.9935 85.7375 71.5904 85.9461C71.3227 86.1057 70.8739 86.3204 70.2439 86.5902C69.6376 86.8723 69.0396 87.2037 68.4499 87.5844C67.9822 87.8792 67.5837 88.1802 67.2546 88.4876C66.9357 88.7703 66.72 89.0471 66.6074 89.318C66.4538 89.6874 66.5542 89.9648 66.9085 90.1505C67.3101 90.3608 68.0097 90.4424 69.0073 90.3953C70.0963 90.336 71.1806 90.1843 72.2601 89.9402C73.3396 89.6961 74.1856 89.4946 74.7982 89.3357C74.9573 89.2991 75.0604 89.2932 75.1077 89.3179C75.2022 89.3674 75.2238 89.4537 75.1726 89.5768C75.1112 89.7246 74.9959 89.8291 74.8266 89.8903C74.5321 89.976 73.9652 90.1288 73.1258 90.3488C72.2864 90.5688 71.3424 90.7639 70.2936 90.9341C69.2684 91.1168 68.3011 91.1948 67.3916 91.1681C66.942 91.1425 66.5314 91.0923 66.1597 91.0176C65.8219 90.9306 65.5231 90.8191 65.2633 90.6829C64.6255 90.3488 64.218 89.9105 64.0409 89.3679C63.8739 88.8007 63.9184 88.2093 64.1743 87.5937C64.2767 87.3474 64.4196 87.1074 64.6031 86.8737C64.7865 86.64 64.9818 86.4124 65.1889 86.191L65.6979 85.6931C64.7562 86.1593 63.8657 86.5024 63.0263 86.7224C62.1972 86.9178 61.3936 87.0516 60.6157 87.1239C59.9629 87.1717 59.3696 87.1458 58.8358 87.0461C58.3256 86.9587 57.8815 86.816 57.5035 86.618ZM59.0011 86.2331C59.4263 86.4558 60.148 86.519 61.1661 86.4226C62.1944 86.3016 63.4704 85.9655 64.994 85.4143C65.1971 85.3408 65.5645 85.2183 66.0959 85.047C66.6613 84.8633 67.2656 84.6552 67.9089 84.4224C68.5625 84.1651 69.14 83.8829 69.6416 83.5759C70.177 83.2566 70.5113 82.937 70.6443 82.6169C70.8388 82.149 70.5463 81.7109 69.7668 81.3026C69.0817 80.9437 68.1373 80.7938 66.9333 80.8528C65.7633 80.8996 64.516 81.2357 63.1916 81.8613C61.8334 82.4992 60.7728 83.1131 60.0098 83.7029C59.2807 84.2805 58.8291 84.7786 58.6551 85.1972C58.4606 85.6651 58.5759 86.0104 59.0011 86.2331ZM72.5194 97.9924C72.2045 97.2277 72.0395 96.5865 72.0245 96.0689C72.023 95.5883 72.1706 94.991 72.4675 94.2769C72.7745 93.5382 73.2119 92.7628 73.7796 91.9507C74.371 91.151 75.0603 90.3576 75.8477 89.5706C75.5091 89.6931 75.1588 89.8095 74.7966 89.9196C74.4344 90.0297 74.0824 90.1152 73.7407 90.1761C73.6391 90.2128 73.5529 90.2126 73.482 90.1755C73.4111 90.1384 73.3911 90.0829 73.4218 90.009C73.4934 89.8367 73.7324 89.677 74.1387 89.53C74.6599 89.3832 75.1729 89.1872 75.6776 88.9418C76.1824 88.6964 76.743 88.4204 77.3595 88.1136C79.6768 85.9991 82.0232 84.2297 84.3988 82.8053C86.7744 81.381 89.4212 80.2037 92.3393 79.2735C93.8219 78.8208 95.116 78.6141 96.2215 78.6534C97.3506 78.7052 98.2695 78.9167 98.9782 79.2879C99.6868 79.6591 100.16 80.1469 100.398 80.7512C100.636 81.3556 100.621 81.9779 100.355 82.6181C100.099 83.2337 99.6069 83.8303 98.8778 84.4079C98.1723 84.9979 97.2034 85.4948 95.9711 85.8988C95.1011 86.1927 94.1027 86.4493 92.9759 86.6687C91.8594 86.8634 90.7346 87.0089 89.6015 87.105C88.4685 87.2011 87.4354 87.2297 86.5023 87.1907C86.4449 87.1906 86.3874 87.1905 86.3299 87.1904C86.2827 87.1656 86.2354 87.1409 86.1882 87.1161C86.0228 87.0295 85.9657 86.9246 86.0169 86.8015C86.0783 86.6538 86.2594 86.5987 86.5602 86.6363C87.4358 86.6752 88.4334 86.6281 89.5531 86.4949C90.6964 86.3742 91.8247 86.1856 92.9381 85.9292C94.0515 85.6729 95.0196 85.3854 95.8424 85.0667C96.8786 84.65 97.6629 84.2512 98.1951 83.8703C98.7613 83.4772 99.1057 83.1329 99.2286 82.8375C99.3821 82.4681 99.2581 82.1782 98.8565 81.9679C98.4313 81.7451 97.7199 81.6573 96.7223 81.7045C95.7585 81.7394 94.5743 81.9586 93.1696 82.3622C91.4365 82.8637 89.6436 83.5438 87.7909 84.4024C85.9618 85.2733 84.2323 86.1815 82.6024 87.1268C81.0063 88.0599 79.6422 88.9196 78.5099 89.7058C79.9634 88.908 81.2756 88.3809 82.4465 88.1247C83.6173 87.8684 84.6354 87.772 85.5008 87.8355C86.2173 87.911 86.8472 88.0911 87.3905 88.3757C88.0047 88.6974 88.4342 89.1173 88.6791 89.6354C88.924 90.1535 88.9441 90.6588 88.7393 91.1513C88.5346 91.6437 88.1389 92.1112 87.5523 92.5535C86.9894 93.0082 86.2071 93.3331 85.2055 93.5281C84.4307 93.662 83.4756 93.6414 82.3402 93.4665C81.2386 93.2792 80.2626 92.9629 79.4123 92.5174C78.9162 92.2575 78.5217 91.9609 78.2288 91.6276C78.4453 92.4907 78.7851 93.4033 79.2481 94.3655C79.7213 95.3031 80.2473 96.1483 80.826 96.9013C81.4386 97.642 82.0284 98.1608 82.5953 98.4578C82.9969 98.6682 83.4091 98.7492 83.8319 98.7008C84.2548 98.6524 84.5327 98.4682 84.6658 98.1481C84.6862 98.0988 84.7201 98.0866 84.7673 98.1113C84.8382 98.1484 84.8634 98.1916 84.8429 98.2409C84.6484 98.7087 84.3008 98.9914 83.8 99.0889C83.3229 99.1988 82.7989 99.1792 82.228 99.03C81.9713 98.9556 81.7028 98.8749 81.4225 98.788C81.176 98.6889 80.9229 98.5713 80.6631 98.4352C79.6946 97.9278 78.8568 97.279 78.1497 96.4888C77.4765 95.6864 76.9402 94.8657 76.541 94.0269C76.1757 93.1758 75.9654 92.436 75.9103 91.8074C75.2757 92.4345 74.7119 93.0987 74.219 93.8001C73.76 94.4892 73.3974 95.1538 73.1312 95.794C72.773 96.6559 72.6588 97.3457 72.7887 97.8636C72.8186 97.9992 72.7931 98.0607 72.7119 98.0483C72.6206 98.0604 72.5564 98.0418 72.5194 97.9924ZM78.9079 91.7584C79.4985 92.0678 80.2567 92.2851 81.1827 92.4103C82.1323 92.5479 82.954 92.5436 83.6477 92.3972C84.2162 92.2752 84.6768 92.0667 85.0295 91.7717C85.4059 91.4891 85.6606 91.1877 85.7937 90.8676C85.937 90.5229 85.9484 90.184 85.8279 89.851C85.7413 89.5058 85.509 89.2342 85.1311 89.0362C84.7531 88.8382 84.248 88.7385 83.6158 88.7372C82.9937 88.7112 82.2071 88.8389 81.2559 89.1202C80.7244 89.2916 80.176 89.4691 79.6107 89.6527C79.069 89.8487 78.5457 90.0694 78.041 90.3148C78.0371 90.4626 78.0398 90.629 78.0493 90.8139C78.069 90.9741 78.1158 91.1036 78.1898 91.2024C78.2638 91.3011 78.3666 91.3999 78.4981 91.4988C78.6296 91.5976 78.7662 91.6842 78.9079 91.7584Z" fill="white"/>
</svg>
