<svg width="103" height="103" viewBox="0 0 103 103" fill="none" xmlns="http://www.w3.org/2000/svg">
<line x1="1.08051" y1="59.2258" x2="1.08051" stroke="#F59E0B"/>
<line y1="-0.5" x2="95.4649" y2="-0.5" transform="matrix(0.894002 0.448062 -0.419816 0.907609 3.05176e-05 59.2258)" stroke="#F59E0B"/>
<path d="M9.5942 40.67C9.45028 40.6001 9.32164 40.4635 9.20828 40.2603C8.96197 39.6369 8.98063 39.0089 9.26425 38.3762C9.60242 37.6219 10.2633 36.9947 11.247 36.4946C12.2655 35.9818 13.5075 35.7851 14.973 35.9043C16.6391 36.032 18.3815 36.3154 20.2002 36.7543C22.0298 37.1689 23.8463 37.7105 25.6497 38.3791C27.488 39.035 29.2107 39.7533 30.8178 40.5339C31.4175 40.8252 31.9997 41.1228 32.5644 41.4268C33.1292 41.7307 33.6645 42.0352 34.1704 42.3402C37.5437 44.3936 39.9248 46.3799 41.3136 48.2991C42.7264 50.2299 43.1819 51.755 42.6801 52.8743C42.4728 53.3366 42.1206 53.6989 41.6233 53.9611C41.3921 54.0859 41.0889 54.1757 40.7138 54.2305C40.3736 54.2727 40.1196 54.253 39.9517 54.1714C39.8077 54.1015 39.7685 53.9936 39.834 53.8476C39.9103 53.6772 40.1557 53.4557 40.5701 53.1828C41.0543 52.8846 41.3782 52.5531 41.5418 52.1881C41.8582 51.4824 41.6599 50.7193 40.9469 49.8989C40.2688 49.0658 39.2549 48.2325 37.9052 47.3991C36.5903 46.553 35.1293 45.7396 33.5222 44.9589C32.4188 44.423 31.2871 43.9177 30.127 43.4431C28.9778 42.9441 27.8897 42.5045 26.8626 42.1241C26.385 41.9514 25.6512 41.6987 24.6612 41.3659C23.6952 41.0448 22.5929 40.702 21.3542 40.3374C20.1265 39.9485 18.865 39.6024 17.5697 39.2991C16.2852 38.9715 15.0804 38.7271 13.9551 38.5657C12.8299 38.4043 11.8681 38.3668 11.0699 38.4532C10.3066 38.5269 9.82137 38.795 9.6141 39.2573C9.47229 39.5736 9.50492 39.9895 9.712 40.505C9.73815 40.5769 9.74578 40.6251 9.73487 40.6494C9.71305 40.6981 9.66616 40.7049 9.5942 40.67ZM11.2417 63.8722C10.0381 63.169 9.36653 62.3539 9.22713 61.4268C9.08774 60.4998 9.23076 59.5618 9.6562 58.6128C10.0162 57.8097 10.495 57.0348 11.0927 56.288C11.6904 55.5412 12.2673 54.8733 12.8235 54.2841C13.3689 53.7193 14.0025 53.1529 14.7244 52.585C15.4704 52.0287 16.4137 51.3906 17.5544 50.6705C18.7191 49.962 20.2076 49.085 22.0201 48.0392C23.8325 46.9935 26.0779 45.6988 28.7562 44.1551C29.2077 43.9299 29.5414 43.8698 29.7573 43.9746C29.9012 44.0446 29.9699 44.152 29.9633 44.297C29.9916 44.4293 29.96 44.5324 29.8684 44.6064C26.0973 46.8935 23.0547 48.9567 20.7405 50.7958C18.4612 52.6222 16.652 54.2473 15.3127 55.671C15.04 55.9534 14.6659 56.3643 14.1904 56.9038C13.7498 57.4305 13.2939 58.024 12.8227 58.6841C12.3624 59.3198 11.9905 59.954 11.7069 60.5867C11.4014 61.268 11.2595 61.9103 11.2812 62.5135C11.3029 63.1167 11.6136 63.5639 12.2133 63.8552C12.5731 64.03 12.9634 64.0714 13.3843 63.9795C13.537 63.9648 13.6253 63.9633 13.6493 63.9749C13.6973 63.9982 13.7104 64.0342 13.6885 64.0829C13.6558 64.1559 13.5402 64.2182 13.3418 64.27C12.7006 64.4623 12.0006 64.3297 11.2417 63.8722ZM30.801 56.1715C30.4652 56.0084 30.2624 55.7766 30.1927 55.476C30.123 55.1755 30.1427 54.9035 30.2518 54.6602C30.4699 54.1735 30.9105 53.8097 31.5735 53.5688C32.2474 53.3035 32.8363 53.2932 33.34 53.5378C33.6758 53.701 33.8786 53.9328 33.9483 54.2334C34.018 54.5339 33.9983 54.8059 33.8893 55.0492C33.6602 55.5602 33.2141 55.9362 32.5511 56.1771C31.9121 56.4297 31.3287 56.4279 30.801 56.1715ZM20.2727 64.7031C19.2892 64.2254 18.7103 63.6923 18.536 63.1039C18.3965 62.5027 18.4468 61.9345 18.6868 61.3992C18.8831 60.9612 19.1405 60.5825 19.459 60.263C19.7884 59.9193 20.0392 59.6855 20.2115 59.5618C20.4645 59.3884 20.7818 59.2018 21.1635 59.0019C21.5692 58.8138 22.0097 58.6129 22.4852 58.3994C21.82 58.58 21.1843 58.7601 20.578 58.9398C19.9957 59.131 19.529 59.2599 19.1778 59.3264C19.0732 59.3644 18.9848 59.366 18.9129 59.331C18.8169 59.2844 18.7962 59.2003 18.8508 59.0786C18.938 58.884 19.1572 58.7534 19.5084 58.6869C20.372 58.4545 21.2335 58.1618 22.0928 57.8087C22.9761 57.4673 23.8016 57.1572 24.5693 56.8781C25.3479 56.5748 25.9901 56.4127 26.4961 56.3918C27.0369 56.3581 27.4556 56.3689 27.7522 56.4241C28.0488 56.4793 28.281 56.5476 28.4489 56.6292C28.7128 56.7573 28.8829 56.8992 28.9592 57.0548C29.0464 57.1861 29.0322 57.2829 28.9166 57.3453C28.3234 57.5609 27.6756 57.8981 26.9733 58.357C26.3059 58.8033 25.6461 59.2977 24.9939 59.8402C24.3418 60.3828 23.7659 60.918 23.2664 61.4458C22.7909 61.9852 22.455 62.4739 22.2586 62.9119C21.9859 63.5203 22.0894 63.941 22.5692 64.174C23.0249 64.3954 23.7053 64.474 24.6103 64.4099C25.5503 64.3331 26.5633 64.1584 27.6494 63.8859C28.7595 63.625 29.8041 63.3472 30.7834 63.0525C30.9229 63.0017 31.0287 62.9938 31.1007 63.0288C31.2206 63.087 31.2533 63.177 31.1988 63.2987C31.1682 63.432 31.106 63.5055 31.0122 63.5192C29.8825 63.8891 28.6285 64.243 27.2502 64.5809C25.9067 64.9062 24.6058 65.104 23.3475 65.1743C22.1132 65.2563 21.0882 65.0992 20.2727 64.7031ZM27.7175 71.7864C27.408 71.0434 27.25 70.4184 27.2436 69.9115C27.2502 69.4406 27.4117 68.8524 27.728 68.1467C28.0553 67.4167 28.5167 66.6481 29.1122 65.841C29.7317 65.0455 30.4515 64.2543 31.2717 63.4674C30.9227 63.5943 30.5618 63.7152 30.1888 63.8304C29.8159 63.9456 29.4538 64.0364 29.1027 64.1029C28.998 64.141 28.9097 64.1425 28.8378 64.1076C28.7658 64.0726 28.7462 64.0186 28.7789 63.9456C28.8553 63.7753 29.1028 63.614 29.5216 63.4619C30.0581 63.3076 30.587 63.1052 31.1082 62.8547C31.6295 62.6041 32.2085 62.3224 32.8454 62.0095C35.2556 59.891 37.6897 58.1102 40.1477 56.6669C42.6058 55.2236 45.3375 54.0169 48.3428 53.0469C49.8694 52.5736 51.1987 52.3451 52.3305 52.3615C53.4863 52.3896 54.424 52.5784 55.1436 52.9279C55.8632 53.2774 56.3396 53.7459 56.5729 54.3333C56.8061 54.9207 56.7809 55.5308 56.4973 56.1634C56.2246 56.7718 55.7098 57.3662 54.9529 57.9468C54.2201 58.5391 53.219 59.0455 51.9497 59.466C51.0533 59.7714 50.0261 60.0429 48.8681 60.2805C47.7209 60.4937 46.5662 60.6587 45.4038 60.7757C44.2414 60.8926 43.1826 60.9413 42.2274 60.9218C42.1685 60.9228 42.1096 60.9239 42.0508 60.9249C42.0028 60.9016 41.9548 60.8783 41.9068 60.855C41.7389 60.7734 41.6822 60.6718 41.7368 60.5501C41.8022 60.4041 41.9887 60.3466 42.2962 60.3774C43.1925 60.3979 44.2153 60.3317 45.3646 60.1788C46.5379 60.0376 47.6971 59.8302 48.842 59.5566C49.987 59.2831 50.9837 58.982 51.8321 58.6533C52.9008 58.2242 53.711 57.8177 54.2628 57.4338C54.8495 57.0373 55.2083 56.693 55.3392 56.401C55.5029 56.036 55.3808 55.7544 54.973 55.5564C54.5413 55.3466 53.814 55.2749 52.7912 55.3411C51.8033 55.3946 50.5863 55.6332 49.1404 56.0568C47.3564 56.583 45.508 57.2853 43.5953 58.1637C41.7065 59.0538 39.9192 59.9784 38.2333 60.9374C36.5822 61.8837 35.17 62.7534 33.9966 63.5465C35.4993 62.7356 36.8526 62.1928 38.0564 61.9182C39.2603 61.6437 40.3049 61.5288 41.1903 61.5737C41.923 61.6333 42.5653 61.7971 43.1169 62.0651C43.7406 62.368 44.1734 62.7708 44.4154 63.2736C44.6574 63.7764 44.6693 64.2711 44.4511 64.7577C44.2329 65.2444 43.8196 65.7103 43.211 66.1556C42.6265 66.6124 41.8195 66.9464 40.7901 67.1576C39.9941 67.3043 39.016 67.3033 37.8559 67.1546C36.7306 66.9933 35.7362 66.7028 34.8727 66.2834C34.369 66.0387 33.97 65.756 33.6756 65.4352C33.8826 66.2766 34.215 67.164 34.6728 68.0976C35.1415 69.0068 35.6658 69.8245 36.2458 70.5507C36.8607 71.2642 37.4559 71.7608 38.0316 72.0404C38.4394 72.2385 38.8602 72.3096 39.2942 72.2537C39.7282 72.1978 40.0161 72.0117 40.1579 71.6954C40.1798 71.6467 40.2147 71.634 40.2626 71.6573C40.3346 71.6923 40.3597 71.7341 40.3378 71.7827C40.1306 72.2451 39.7696 72.529 39.2549 72.6346C38.7642 72.7518 38.2277 72.7431 37.6455 72.6085C37.3838 72.5406 37.1101 72.4669 36.8245 72.3874C36.5737 72.2953 36.3164 72.1851 36.0525 72.0569C35.0691 71.5792 34.2219 70.9603 33.5111 70.2002C32.8352 69.4274 32.3 68.634 31.9054 67.8201C31.5458 66.9935 31.3431 66.2727 31.2974 65.6579C30.6365 66.2851 30.0476 66.9473 29.5306 67.6444C29.0485 68.3288 28.6656 68.9873 28.382 69.62C28.0002 70.4717 27.8714 71.1499 27.9956 71.6547C28.0239 71.787 27.9967 71.8479 27.9138 71.8372C27.82 71.8509 27.7546 71.834 27.7175 71.7864ZM34.3691 65.5498C34.9688 65.8411 35.7418 66.0388 36.6883 66.143C37.6587 66.2588 38.5005 66.238 39.2136 66.0807C39.7981 65.9497 40.2736 65.7362 40.64 65.4401C41.0304 65.1556 41.2965 64.8552 41.4383 64.5389C41.5911 64.1982 41.6086 63.8659 41.4909 63.5421C41.4081 63.2055 41.1748 62.944 40.791 62.7576C40.4072 62.5712 39.8915 62.4836 39.2438 62.495C38.607 62.482 37.799 62.6229 36.8197 62.9177C36.2723 63.0962 35.7074 63.2812 35.1251 63.4724C34.5668 63.6753 34.027 63.9021 33.5058 64.1526C33.4992 64.2976 33.4992 64.4605 33.5057 64.6415C33.5231 64.7981 33.5689 64.9241 33.643 65.0193C33.7171 65.1146 33.8207 65.2094 33.9537 65.3036C34.0867 65.3978 34.2252 65.4799 34.3691 65.5498ZM47.2958 58.9834C47.1519 58.9134 47.0232 58.7769 46.9099 58.5737C46.6635 57.9503 46.6822 57.3222 46.9658 56.6896C47.304 55.9352 47.9649 55.308 48.9485 54.808C49.9671 54.2952 51.2091 54.0984 52.6745 54.2177C54.3407 54.3454 56.0831 54.6288 57.9018 55.0677C59.7314 55.4823 61.5479 56.0239 63.3513 56.6925C65.1896 57.3484 66.9123 58.0666 68.5194 58.8473C69.119 59.1386 69.7012 59.4362 70.266 59.7402C70.8308 60.0441 71.3661 60.3486 71.872 60.6536C75.2453 62.707 77.6264 64.6933 79.0152 66.6125C80.428 68.5433 80.8835 70.0683 80.3817 71.1877C80.1744 71.65 79.8221 72.0123 79.3249 72.2745C79.0937 72.3992 78.7905 72.489 78.4154 72.5439C78.0752 72.5861 77.8211 72.5664 77.6532 72.4848C77.5093 72.4149 77.4701 72.3069 77.5355 72.1609C77.6119 71.9906 77.8573 71.769 78.2717 71.4962C78.7559 71.198 79.0798 70.8664 79.2434 70.5014C79.5598 69.7958 79.3615 69.0327 78.6485 68.2123C77.9704 67.3792 76.9565 66.5459 75.6068 65.7125C74.2919 64.8663 72.8309 64.053 71.2238 63.2723C70.1204 62.7364 68.9887 62.2311 67.8286 61.7565C66.6794 61.2575 65.5913 60.8178 64.5642 60.4375C64.0866 60.2648 63.3528 60.012 62.3628 59.6793C61.3968 59.3582 60.2944 59.0154 59.0558 58.6508C57.8281 58.2618 56.5666 57.9158 55.2712 57.6125C53.9868 57.2849 52.782 57.0404 51.6567 56.8791C50.5314 56.7177 49.5697 56.6802 48.7715 56.7666C48.0082 56.8403 47.5229 57.1083 47.3157 57.5707C47.1739 57.887 47.2065 58.3029 47.4136 58.8183C47.4397 58.8903 47.4474 58.9385 47.4364 58.9628C47.4146 59.0115 47.3677 59.0183 47.2958 58.9834ZM48.9433 82.1856C47.7396 81.4824 47.0681 80.6672 46.9287 79.7402C46.7893 78.8132 46.9323 77.8751 47.3578 76.9261C47.7178 76.1231 48.1966 75.3482 48.7943 74.6014C49.392 73.8546 49.9689 73.1866 50.5251 72.5975C51.0704 72.0327 51.7041 71.4663 52.426 70.8984C53.172 70.3421 54.1153 69.7039 55.256 68.9839C56.4207 68.2754 57.9092 67.3983 59.7217 66.3526C61.5341 65.3069 63.7795 64.0122 66.4578 62.4685C66.9093 62.2433 67.243 62.1832 67.4588 62.288C67.6028 62.3579 67.6714 62.4654 67.6649 62.6103C67.6932 62.7426 67.6615 62.8458 67.5699 62.9198C63.7989 65.2069 60.7563 67.27 58.4421 69.1092C56.1628 70.9356 54.3535 72.5607 53.0142 73.9844C52.7416 74.2668 52.3675 74.6777 51.892 75.2172C51.4514 75.7439 50.9955 76.3374 50.5243 76.9975C50.064 77.6332 49.6921 78.2674 49.4084 78.9001C49.103 79.5814 48.9611 80.2237 48.9828 80.8269C49.0045 81.43 49.3152 81.8773 49.9149 82.1686C50.2747 82.3433 50.665 82.3848 51.0859 82.2929C51.2386 82.2782 51.3269 82.2766 51.3509 82.2883C51.3989 82.3116 51.4119 82.3476 51.3901 82.3962C51.3574 82.4692 51.2418 82.5316 51.0433 82.5834C50.4021 82.7757 49.7021 82.6431 48.9433 82.1856ZM57.4345 82.7543C56.691 82.3931 56.2189 81.8823 56.0184 81.2219C55.8288 80.5372 55.9031 79.8176 56.2413 79.0633C56.5576 78.3576 57.0866 77.6663 57.8282 76.9894C58.5938 76.3242 59.5807 75.7516 60.789 75.2718C62.043 74.7549 63.4191 74.5196 64.9174 74.5658C66.4265 74.5877 67.7447 74.8724 68.8721 75.42C69.7836 75.8628 70.4704 76.4483 70.9326 77.1765C71.4057 77.8804 71.6138 78.589 71.557 79.3022C71.8208 79.4304 72.1119 79.6607 72.4303 79.9931C72.7726 80.3372 72.8565 80.7039 72.6819 81.0932C72.5619 81.3609 72.2937 81.6009 71.8771 81.8135C71.6001 81.9752 71.1366 82.1946 70.4867 82.4715C69.8608 82.7601 69.2424 83.0969 68.6317 83.4818C68.1475 83.7799 67.7342 84.0829 67.3918 84.3907C67.0602 84.6741 66.8345 84.9497 66.7145 85.2174C66.5508 85.5824 66.6489 85.8522 67.0087 86.027C67.4165 86.2251 68.1318 86.291 69.1546 86.2248C70.2712 86.1449 71.3845 85.9746 72.4946 85.7137C73.6047 85.4529 74.4749 85.2385 75.1051 85.0705C75.2687 85.0314 75.3745 85.0235 75.4224 85.0468C75.5184 85.0934 75.5391 85.1776 75.4846 85.2992C75.4191 85.4452 75.2991 85.55 75.1247 85.6134C74.8215 85.7032 74.2381 85.8643 73.3745 86.0967C72.5108 86.3291 71.5403 86.5392 70.463 86.727C69.4096 86.9265 68.4173 87.0224 67.4861 87.0145C67.026 86.9984 66.6062 86.9575 66.2267 86.8917C65.8822 86.8133 65.578 86.7099 65.3141 86.5818C64.6665 86.2672 64.2566 85.8458 64.0844 85.3177C63.9231 84.7653 63.9789 84.1849 64.2516 83.5765C64.3607 83.3332 64.5112 83.0952 64.7031 82.8625C64.8951 82.6297 65.099 82.4029 65.315 82.1818L65.845 81.6836C64.8723 82.1594 63.9541 82.5134 63.0905 82.7458C62.2377 82.9539 61.4123 83.1011 60.6141 83.1875C59.9446 83.2475 59.3372 83.234 58.792 83.147C58.2708 83.0716 57.8183 82.9407 57.4345 82.7543ZM58.9754 82.3471C59.4071 82.5568 60.1453 82.6042 61.1899 82.4894C62.2455 82.3502 63.5584 81.9953 65.1287 81.4246C65.338 81.3485 65.7164 81.2211 66.2638 81.0426C66.8462 80.8513 67.4688 80.6352 68.1318 80.3942C68.8057 80.129 69.4023 79.8409 69.9213 79.53C70.4753 79.2065 70.8232 78.8865 70.965 78.5702C71.1723 78.1079 70.8802 77.6844 70.0886 77.2999C69.393 76.9621 68.428 76.8341 67.1937 76.916C65.9942 76.9853 64.7107 77.3397 63.3432 77.9793C61.9409 78.6316 60.8438 79.2543 60.0521 79.8476C59.2952 80.4282 58.8241 80.9253 58.6386 81.339C58.4314 81.8013 58.5436 82.1374 58.9754 82.3471ZM72.6221 93.5986C72.3126 92.8556 72.1546 92.2306 72.1482 91.7237C72.1548 91.2529 72.3163 90.6646 72.6326 89.9589C72.9599 89.2289 73.4213 88.4603 74.0168 87.6532C74.6363 86.8577 75.3561 86.0666 76.1762 85.2796C75.8273 85.4065 75.4663 85.5275 75.0934 85.6426C74.7205 85.7578 74.3584 85.8486 74.0073 85.9151C73.9026 85.9532 73.8143 85.9547 73.7423 85.9198C73.6704 85.8848 73.6508 85.8308 73.6835 85.7578C73.7598 85.5875 74.0074 85.4262 74.4261 85.2741C74.9627 85.1198 75.4915 84.9174 76.0128 84.6669C76.5341 84.4163 77.1131 84.1346 77.75 83.8217C80.1602 81.7032 82.5943 79.9224 85.0523 78.4791C87.5103 77.0358 90.242 75.8292 93.2474 74.8591C94.774 74.3858 96.1033 74.1573 97.2351 74.1737C98.3909 74.2018 99.3286 74.3906 100.048 74.7401C100.768 75.0896 101.244 75.5581 101.477 76.1455C101.711 76.7329 101.685 77.343 101.402 77.9756C101.129 78.584 100.614 79.1784 99.8575 79.759C99.1247 80.3513 98.1236 80.8577 96.8543 81.2782C95.9579 81.5836 94.9307 81.8551 93.7726 82.0927C92.6255 82.3059 91.4707 82.471 90.3083 82.5879C89.146 82.7048 88.0872 82.7535 87.132 82.734C87.0731 82.735 87.0142 82.7361 86.9553 82.7371C86.9074 82.7138 86.8594 82.6905 86.8114 82.6672C86.6435 82.5856 86.5868 82.484 86.6414 82.3623C86.7068 82.2163 86.8933 82.1588 87.2008 82.1896C88.0971 82.2101 89.1199 82.1439 90.2692 81.991C91.4425 81.8498 92.6016 81.6424 93.7466 81.3689C94.8916 81.0953 95.8883 80.7942 96.7367 80.4655C97.8053 80.0364 98.6156 79.6299 99.1674 79.246C99.7541 78.8495 100.113 78.5052 100.244 78.2132C100.407 77.8482 100.285 77.5667 99.8776 77.3686C99.4459 77.1589 98.7186 77.0871 97.6958 77.1533C96.7078 77.2068 95.4909 77.4454 94.045 77.869C92.261 78.3952 90.4126 79.0975 88.4999 79.9759C86.6111 80.866 84.8238 81.7906 83.1378 82.7496C81.4868 83.6959 80.0746 84.5656 78.9011 85.3587C80.4039 84.5478 81.7572 84.005 82.961 83.7305C84.1649 83.4559 85.2095 83.341 86.0949 83.3859C86.8276 83.4455 87.4698 83.6093 88.0215 83.8773C88.6452 84.1802 89.078 84.583 89.32 85.0858C89.5619 85.5886 89.5738 86.0833 89.3557 86.5699C89.1375 87.0566 88.7241 87.5225 88.1156 87.9678C87.5311 88.4246 86.7241 88.7586 85.6947 88.9698C84.8987 89.1165 83.9206 89.1155 82.7605 88.9668C81.6352 88.8055 80.6408 88.515 79.7773 88.0956C79.2736 87.8509 78.8745 87.5682 78.5802 87.2474C78.7872 88.0888 79.1196 88.9762 79.5774 89.9098C80.0461 90.819 80.5704 91.6367 81.1504 92.3629C81.7652 93.0764 82.3605 93.573 82.9362 93.8526C83.3439 94.0507 83.7648 94.1218 84.1988 94.0659C84.6328 94.01 84.9207 93.8239 85.0625 93.5076C85.0843 93.4589 85.1192 93.4462 85.1672 93.4695C85.2392 93.5045 85.2642 93.5463 85.2424 93.595C85.0352 94.0573 84.6742 94.3412 84.1595 94.4468C83.6688 94.564 83.1323 94.5553 82.5501 94.4207C82.2884 94.3528 82.0147 94.2791 81.729 94.1997C81.4783 94.1075 81.2209 93.9973 80.9571 93.8691C79.9736 93.3914 79.1265 92.7725 78.4157 92.0124C77.7398 91.2396 77.2046 90.4462 76.81 89.6323C76.4503 88.8057 76.2477 88.0849 76.202 87.4701C75.5411 88.0973 74.9521 88.7595 74.4352 89.4566C73.9531 90.141 73.5702 90.7996 73.2866 91.4322C72.9048 92.2839 72.776 92.9621 72.9002 93.4669C72.9285 93.5992 72.9013 93.6601 72.8184 93.6494C72.7246 93.6632 72.6592 93.6462 72.6221 93.5986ZM79.2737 87.362C79.8733 87.6533 80.6464 87.851 81.5928 87.9552C82.5633 88.071 83.4051 88.0502 84.1182 87.8929C84.7027 87.7619 85.1782 87.5484 85.5446 87.2523C85.935 86.9678 86.2011 86.6674 86.3429 86.3511C86.4957 86.0104 86.5132 85.6781 86.3955 85.3543C86.3127 85.0177 86.0794 84.7562 85.6956 84.5698C85.3118 84.3834 84.796 84.2959 84.1483 84.3072C83.5116 84.2942 82.7035 84.4351 81.7243 84.7299C81.1769 84.9084 80.612 85.0934 80.0297 85.2846C79.4714 85.4875 78.9316 85.7143 78.4103 85.9648C78.4038 86.1098 78.4037 86.2727 78.4102 86.4537C78.4277 86.6103 78.4734 86.7363 78.5476 86.8315C78.6217 86.9268 78.7253 87.0216 78.8583 87.1158C78.9913 87.2101 79.1297 87.2921 79.2737 87.362Z" fill="black"/>
</svg>